<?xml version="1.0" encoding="UTF-8" standalone="no"?>
<!-- Created with Inkscape (http://www.inkscape.org/) -->

<svg
   version="1.1"
   id="svg91"
   width="813.58026"
   height="382.811"
   viewBox="0 0 813.58026 382.81101"
   sodipodi:docname="logo"
   inkscape:version="1.2.1 (2ed6d7ae0b, 2022-08-22, custom)"
   xmlns:inkscape="http://www.inkscape.org/namespaces/inkscape"
   xmlns:sodipodi="http://sodipodi.sourceforge.net/DTD/sodipodi-0.dtd"
   xmlns="http://www.w3.org/2000/svg"
   xmlns:svg="http://www.w3.org/2000/svg">
  <defs
     id="defs95">
    <clipPath
       clipPathUnits="userSpaceOnUse"
       id="clipPath107">
      <path
         d="M 0,315.84 H 671.28 V 0 H 0 Z"
         id="path105" />
    </clipPath>
  </defs>
  <sodipodi:namedview
     id="namedview93"
     pagecolor="#ffffff"
     bordercolor="#666666"
     borderopacity="1.0"
     inkscape:showpageshadow="2"
     inkscape:pageopacity="0.0"
     inkscape:pagecheckerboard="0"
     inkscape:deskcolor="#d1d1d1"
     showgrid="false"
     inkscape:zoom="1.1968927"
     inkscape:cx="379.7333"
     inkscape:cy="202.19023"
     inkscape:window-width="1920"
     inkscape:window-height="1021"
     inkscape:window-x="0"
     inkscape:window-y="0"
     inkscape:window-maximized="1"
     inkscape:current-layer="g101">
    <inkscape:page
       x="0"
       y="0"
       id="page97"
       width="813.58026"
       height="382.811" />
  </sodipodi:namedview>
  <g
     id="g99"
     inkscape:groupmode="layer"
     inkscape:label="Page 1"
     transform="matrix(1.3333333,0,0,-1.3333333,-40.607594,401.98352)">
    <g
       id="g101">
      <g
         id="g103"
         clip-path="url(#clipPath107)">
        <g
           id="g109"
           transform="translate(417.8806,170.5467)">
          <path
             d="m 0,0 c 1.726,1.529 3.54,2.971 5.161,4.605 3.205,3.234 6.303,6.575 9.447,9.87 3.697,3.873 7.307,7.831 11.153,11.558 1.903,1.845 3.917,3.457 6.675,3.962 5.885,1.075 11.169,-3.281 10.857,-9.153 C 43.15,18.154 41.539,16.097 39.898,14.131 36.376,9.911 32.022,6.549 28.068,2.773 27.202,1.946 26.344,1.103 25.409,0.359 c -0.735,-0.585 -0.66,-1.043 -0.189,-1.777 4.946,-7.709 9.86,-15.438 14.77,-23.17 2.795,-4.402 5.745,-8.711 8.255,-13.287 2.886,-5.263 0.328,-12.427 -5.295,-14.08 -5.598,-1.645 -8.527,-0.284 -11.711,4.12 -5.043,6.975 -8.918,14.676 -13.816,21.739 -2.291,3.303 -4.232,6.823 -6.069,10.398 -0.653,1.27 -1.054,1.078 -1.71,0.449 -2.624,-2.517 -5.18,-5.114 -7.924,-7.493 -1.296,-1.123 -1.67,-2.282 -1.637,-3.918 0.1,-4.836 0.089,-9.677 0.018,-14.515 -0.057,-3.925 -1.536,-7.21 -4.788,-9.572 -4.64,-3.372 -13.613,-2.514 -15.555,6.097 -0.342,1.517 -0.525,3.059 -0.524,4.626 0.008,28.818 0.005,57.635 0.008,86.453 0,1.648 0.137,3.299 0.52,4.902 1.573,6.578 5.587,8.96 10.577,8.679 4.769,-0.268 8.107,-3.197 9.245,-7.823 C -0.053,50.713 0.132,49.22 0.13,47.69 0.112,32.174 0.119,16.658 0.119,1.142 V -0.267 C 0.08,-0.178 0.04,-0.089 0,0"
             style="fill:#02b3e1;fill-opacity:1;fill-rule:nonzero;stroke:none"
             id="path111" />
        </g>
        <g
           id="g113"
           transform="translate(320.0018,188.1989)">
          <path
             d="m 0,0 c 2.055,2.51 4.323,4.796 6.938,6.715 4.415,3.24 9.365,5.002 14.812,5.533 6.304,0.614 12.342,-0.181 17.94,-3.249 7.161,-3.925 11.03,-10.173 12.293,-18.106 0.646,-4.064 0.695,-8.18 0.694,-12.291 -0.004,-12.035 0.008,-24.07 -0.011,-36.105 -0.003,-1.754 -0.231,-3.491 -0.677,-5.201 -1.124,-4.315 -4.878,-7.651 -9.955,-7.483 -4.752,0.158 -8.411,2.909 -9.687,7.583 -0.497,1.823 -0.689,3.689 -0.696,5.558 -0.04,12.194 -0.003,24.389 -0.076,36.583 -0.021,3.438 -0.67,6.808 -1.904,10.041 -1.506,3.948 -4.596,5.769 -8.592,6.288 C 11.977,-2.952 5.333,-8.267 2.673,-15.251 1.769,-17.624 1.504,-20.132 1.374,-22.636 0.763,-34.337 1.216,-46.05 1.075,-57.757 c -0.022,-1.84 -0.265,-3.657 -0.812,-5.418 -1.234,-3.971 -4.816,-7.36 -10.72,-6.995 -4.293,0.266 -7.93,3.45 -8.996,8.118 -0.365,1.595 -0.546,3.217 -0.546,4.858 0.002,19.153 0,38.305 0.004,57.457 0,1.92 0.206,3.819 0.758,5.667 2.139,7.157 10.345,7.895 14.619,4.841 C -1.587,8.605 -0.414,5.483 -0.281,1.88 -0.259,1.294 -0.278,0.706 -0.278,0.12 -0.185,0.08 -0.093,0.04 0,0"
             style="fill:#02b3e1;fill-opacity:1;fill-rule:nonzero;stroke:none"
             id="path115" />
        </g>
        <g
           id="g117"
           transform="translate(605.4536,118.0491)">
          <path
             d="m 0,0 c -7.873,-0.146 -15.195,1.048 -22.025,4.589 -5.307,2.751 -9.523,6.548 -11.658,12.282 -0.977,2.625 -1.384,5.358 -0.369,8.07 1.105,2.953 3.309,4.744 6.397,5.306 3.387,0.617 6.358,-0.122 8.42,-3.126 1.307,-1.904 2.473,-3.908 3.83,-5.774 3.738,-5.139 8.932,-7.358 15.182,-7.442 3.416,-0.046 6.787,0.048 9.899,1.707 0.882,0.471 1.698,1.038 2.488,1.651 4.228,3.283 2.817,9.826 -0.892,12.128 -3.191,1.981 -6.726,3.071 -10.307,4.001 -6.625,1.721 -13.269,3.366 -19.599,6.039 -4.901,2.069 -9.37,4.837 -12.225,9.425 -4.32,6.944 -3.788,14.052 0.301,20.905 3.35,5.615 8.598,8.885 14.686,10.855 6.044,1.956 12.266,2.24 18.57,1.793 6.236,-0.442 12.238,-1.717 17.793,-4.645 4.475,-2.358 8.246,-5.493 10.108,-10.403 2.258,-5.952 -0.957,-11.438 -7.338,-11.987 -4.324,-0.372 -7.178,1.703 -9.772,4.674 -1.702,1.949 -3.196,4.074 -5.248,5.728 -3.663,2.95 -7.91,3.369 -12.332,3.028 -2.692,-0.207 -5.234,-0.964 -7.448,-2.625 -3.759,-2.821 -3.702,-7.436 0.146,-10.112 2.563,-1.783 5.496,-2.669 8.452,-3.515 6.389,-1.829 12.958,-3.004 19.222,-5.285 4.326,-1.576 8.46,-3.496 12.03,-6.488 3.965,-3.322 6.503,-7.399 6.816,-12.666 C 35.57,20.67 33.604,14.042 28.183,8.732 24.257,4.887 19.352,2.804 14.085,1.515 9.372,0.362 4.582,-0.117 0,0"
             style="fill:#02b3e1;fill-opacity:1;fill-rule:nonzero;stroke:none"
             id="path119" />
        </g>
        <g
           id="g121"
           transform="translate(140.2624,93.8657)">
          <path
             d="m 0,0 c 3.12,1.809 5.968,3.627 8.806,5.467 1.092,0.708 2.475,0.457 3.741,0.512 5.697,0.248 11.395,0.484 17.092,0.731 0.265,0.012 0.527,0.087 0.809,0.414 -5.654,0.602 -11.307,1.203 -16.939,1.802 -0.168,0.418 0.155,0.55 0.333,0.725 1.967,1.93 3.968,3.833 6.439,5.116 6.032,3.133 13.162,2.076 18.184,-2.637 1.785,-1.675 3.367,-3.496 4.501,-5.689 2.073,-4.008 2.309,-8.057 0.343,-12.168 -2.093,-4.377 -5.341,-7.641 -9.78,-9.564 -5.587,-2.421 -10.827,-1.445 -15.671,2.079 -2.104,1.53 -3.848,3.472 -5.799,5.178 C 8.74,-5.132 4.915,-2.978 1.179,-0.693 0.848,-0.491 0.511,-0.3 0,0"
             style="fill:#0c80df;fill-opacity:1;fill-rule:nonzero;stroke:none"
             id="path123" />
        </g>
        <g
           id="g125"
           transform="translate(61.8978,234.602)">
          <path
             d="m 0,0 c -6.075,-0.939 -12.01,-1.138 -17.836,-2.283 6.002,-0.245 12.003,-0.519 18.006,-0.718 2.393,-0.08 4.551,-0.528 6.539,-2.062 1.934,-1.494 4.141,-2.633 6.333,-3.993 -2.027,-1.259 -3.962,-2.489 -5.925,-3.673 -3.158,-1.905 -6.017,-4.178 -8.637,-6.77 -2.486,-2.46 -5.193,-4.62 -8.659,-5.532 -6.4,-1.682 -11.718,0.365 -16.205,4.933 -3.147,3.203 -5.213,6.927 -5.049,11.605 0.108,3.072 1.313,5.732 3.078,8.157 2.874,3.946 6.58,6.759 11.465,7.619 5.14,0.904 9.588,-0.775 13.456,-4.148 C -2.323,2.166 -1.255,1.149 0,0"
             style="fill:#a115c1;fill-opacity:1;fill-rule:nonzero;stroke:none"
             id="path127" />
        </g>
        <g
           id="g129"
           transform="translate(127.0928,60.9929)">
          <path
             d="m 0,0 c 2.076,1.318 4.097,2.584 6.098,3.884 0.468,0.304 0.951,0.352 1.477,0.373 4.226,0.167 8.452,0.346 12.677,0.529 0.342,0.014 0.682,0.088 1.035,0.409 -3.878,0.423 -7.755,0.845 -11.674,1.271 4.306,5.513 11.216,7.571 17.209,2.861 2.937,-2.308 5.112,-5.2 5.164,-9.049 0.064,-4.701 -2.572,-8.018 -6.376,-10.422 -4.362,-2.757 -9.319,-2.316 -13.312,0.969 -1.973,1.624 -3.647,3.597 -5.785,5.02 C 4.394,-2.745 2.222,-1.413 0,0"
             style="fill:#098dcd;fill-opacity:1;fill-rule:nonzero;stroke:none"
             id="path131" />
        </g>
        <g
           id="g133"
           transform="translate(78.6541,199.4572)">
          <path
             d="m 0,0 c -4.16,-0.755 -8.301,-0.746 -12.335,-1.703 4.178,-0.178 8.355,-0.382 12.534,-0.523 1.701,-0.057 3.244,-0.346 4.666,-1.429 1.416,-1.078 3.018,-1.914 4.628,-2.912 -1.53,-0.94 -3.011,-1.88 -4.521,-2.771 -2.879,-1.698 -5.181,-4.096 -7.683,-6.254 -4.634,-3.996 -10.908,-3.827 -15.421,0.359 -2.356,2.186 -4.102,4.696 -4.363,7.992 -0.284,3.583 1.37,6.412 3.77,8.841 3.754,3.802 8.955,4.787 13.389,2.639 C -3.295,3.251 -1.732,1.654 0,0"
             style="fill:#a115c1;fill-opacity:1;fill-rule:nonzero;stroke:none"
             id="path135" />
        </g>
        <g
           id="g137"
           transform="translate(88.2143,258.4301)">
          <path
             d="m 0,0 c -2.144,-1.372 -4.249,-2.708 -6.34,-4.067 -0.303,-0.196 -0.615,-0.153 -0.92,-0.166 -4.105,-0.186 -8.21,-0.367 -12.316,-0.518 -0.723,-0.026 -1.425,-0.053 -2.187,-0.439 4.095,-0.435 8.09,-0.86 12.312,-1.309 -1.512,-1.558 -2.909,-2.974 -4.685,-3.948 -5.483,-3.006 -10.854,-1.299 -14.834,3.153 -1.068,1.195 -1.878,2.572 -2.443,4.088 -1.374,3.69 -0.317,6.956 1.956,9.852 2.31,2.943 5.23,5.01 9.171,5.221 3.633,0.195 6.665,-1.191 9.135,-3.689 C -7.999,4.99 -4.328,2.569 -0.489,0.347 -0.321,0.249 -0.17,0.122 0,0"
             style="fill:#a812b6;fill-opacity:1;fill-rule:nonzero;stroke:none"
             id="path139" />
        </g>
        <g
           id="g141"
           transform="translate(136.6637,119.9314)">
          <path
             d="M 0,0 C 4.27,0.783 8.439,0.702 12.788,1.696 7.72,1.915 2.975,2.138 -1.771,2.312 -3.116,2.361 -4.015,3.237 -5.053,3.865 -6.48,4.729 -7.891,5.618 -9.432,6.572 c 1.353,0.839 2.623,1.687 3.949,2.435 2.904,1.639 5.329,3.881 7.726,6.14 4.719,4.448 11.411,4.416 16.08,-0.12 1.269,-1.232 2.38,-2.561 3.166,-4.154 1.42,-2.879 1.412,-5.758 -0.002,-8.627 -1.423,-2.89 -3.591,-5.097 -6.486,-6.465 C 10.474,-6.358 6.32,-5.453 2.553,-2.339 1.727,-1.657 0.97,-0.893 0,0"
             style="fill:#205ce1;fill-opacity:1;fill-rule:nonzero;stroke:none"
             id="path143" />
        </g>
        <g
           id="g145"
           transform="translate(100.3013,291.3591)">
          <path
             d="M 0,0 C 0.011,5.67 4.506,10.021 10.224,10.127 15.81,10.23 20.657,5.18 20.47,-0.418 20.288,-5.823 15.785,-10.353 10.24,-10.367 4.473,-10.381 -0.012,-5.841 0,0"
             style="fill:#a812b6;fill-opacity:1;fill-rule:nonzero;stroke:none"
             id="path147" />
        </g>
        <g
           id="g149"
           transform="translate(100.2939,24.7846)">
          <path
             d="M 0,0 C -0.243,4.556 3.602,10.13 10.177,10.164 16.642,10.197 20.681,4.741 20.487,-0.537 20.294,-5.773 15.658,-10.586 9.842,-10.4 4.585,-10.231 -0.283,-5.586 0,0"
             style="fill:#02b3e1;fill-opacity:1;fill-rule:nonzero;stroke:none"
             id="path151" />
        </g>
        <g
           id="g153"
           transform="translate(100.2605,160.9895)">
          <path
             d="M 0,0 C -0.05,5.482 4.614,10.388 10.081,10.335 15.99,10.278 20.28,5.896 20.446,0.322 20.614,-5.354 15.936,-10.235 10.325,-10.194 4.479,-10.152 0.148,-5.663 0,0"
             style="fill:#3440e1;fill-opacity:1;fill-rule:nonzero;stroke:none"
             id="path155" />
        </g>
        <g
           id="g157"
           transform="translate(110.8927,258.7018)">
          <path
             d="m 0,0 c -0.02,-1.718 -1.591,-3.273 -3.32,-3.287 -1.753,-0.014 -3.383,1.649 -3.329,3.395 0.054,1.758 1.599,3.27 3.327,3.257 C -1.501,3.352 0.021,1.81 0,0"
             style="fill:#a812b6;fill-opacity:1;fill-rule:nonzero;stroke:none"
             id="path159" />
        </g>
        <g
           id="g161"
           transform="translate(107.8009,57.3751)">
          <path
             d="m 0,0 c -1.881,-0.012 -3.389,1.44 -3.383,3.256 0.007,1.811 1.568,3.389 3.341,3.378 C 1.669,6.623 3.249,5.072 3.286,3.366 3.326,1.524 1.85,0.012 0,0"
             style="fill:#0894d3;fill-opacity:1;fill-rule:nonzero;stroke:none"
             id="path163" />
        </g>
        <g
           id="g165"
           transform="translate(107.8029,97.2096)">
          <path
             d="m 0,0 c 1.798,-0.013 3.263,-1.479 3.277,-3.277 0.014,-1.805 -1.55,-3.338 -3.383,-3.317 -1.75,0.021 -3.26,1.546 -3.278,3.314 C -3.403,-1.476 -1.866,0.014 0,0"
             style="fill:#0d81df;fill-opacity:1;fill-rule:nonzero;stroke:none"
             id="path167" />
        </g>
        <g
           id="g169"
           transform="translate(121.396,97.2097)">
          <path
             d="M 0,0 C 1.861,0.02 3.407,-1.472 3.4,-3.282 3.393,-5.013 1.856,-6.569 0.112,-6.61 -1.669,-6.652 -3.284,-5.066 -3.285,-3.273 -3.286,-1.513 -1.786,-0.019 0,0"
             style="fill:#0d81df;fill-opacity:1;fill-rule:nonzero;stroke:none"
             id="path171" />
        </g>
        <g
           id="g173"
           transform="translate(135.1849,97.2096)">
          <path
             d="M 0,0 C 1.796,-0.01 3.3,-1.485 3.305,-3.241 3.311,-5.071 1.757,-6.615 -0.057,-6.582 -1.851,-6.55 -3.359,-5.071 -3.389,-3.313 -3.419,-1.545 -1.828,0.01 0,0"
             style="fill:#0d81e0;fill-opacity:1;fill-rule:nonzero;stroke:none"
             id="path175" />
        </g>
        <g
           id="g177"
           transform="translate(90.5626,258.7345)">
          <path
             d="M 0,0 C -0.029,1.733 1.49,3.3 3.228,3.333 4.997,3.366 6.654,1.77 6.649,0.039 6.644,-1.673 5.103,-3.26 3.388,-3.32 1.65,-3.381 0.03,-1.793 0,0"
             style="fill:#a812b6;fill-opacity:1;fill-rule:nonzero;stroke:none"
             id="path179" />
        </g>
        <g
           id="g181"
           transform="translate(124.5725,258.655)">
          <path
             d="m 0,0 c -0.028,-1.702 -1.641,-3.263 -3.35,-3.24 -1.686,0.023 -3.293,1.639 -3.299,3.318 -0.007,1.77 1.61,3.365 3.38,3.334 C -1.462,3.381 0.03,1.823 0,0"
             style="fill:#a812b6;fill-opacity:1;fill-rule:nonzero;stroke:none"
             id="path183" />
        </g>
        <g
           id="g185"
           transform="translate(93.8661,189.8398)">
          <path
             d="M 0,0 C -1.749,-0.005 -3.283,1.512 -3.305,3.268 -3.327,5.055 -1.724,6.69 0.023,6.663 1.778,6.637 3.358,5.009 3.345,3.242 3.332,1.542 1.746,0.005 0,0"
             style="fill:#a115c1;fill-opacity:1;fill-rule:nonzero;stroke:none"
             id="path187" />
        </g>
        <g
           id="g189"
           transform="translate(94.0138,57.3755)">
          <path
             d="M 0,0 C -1.817,-0.001 -3.269,1.433 -3.274,3.233 -3.28,5.04 -1.734,6.629 0.036,6.636 1.778,6.642 3.391,5.022 3.394,3.261 3.397,1.484 1.854,0.001 0,0"
             style="fill:#0892d1;fill-opacity:1;fill-rule:nonzero;stroke:none"
             id="path191" />
        </g>
        <g
           id="g193"
           transform="translate(121.4154,57.3744)">
          <path
             d="m 0,0 c -1.793,0.011 -3.288,1.473 -3.308,3.233 -0.02,1.75 1.592,3.401 3.324,3.403 C 1.773,6.639 3.379,5.036 3.384,3.275 3.389,1.458 1.87,-0.012 0,0"
             style="fill:#0797d6;fill-opacity:1;fill-rule:nonzero;stroke:none"
             id="path195" />
        </g>
        <g
           id="g197"
           transform="translate(110.8919,193.1465)">
          <path
             d="m 0,0 c 0.016,-1.72 -1.515,-3.27 -3.27,-3.31 -1.781,-0.04 -3.401,1.55 -3.384,3.321 0.017,1.711 1.579,3.304 3.282,3.347 C -1.622,3.402 -0.017,1.803 0,0"
             style="fill:#a115c1;fill-opacity:1;fill-rule:nonzero;stroke:none"
             id="path199" />
        </g>
        <g
           id="g201"
           transform="translate(94.0714,97.2096)">
          <path
             d="M 0,0 C 1.764,0.002 3.309,-1.495 3.329,-3.226 3.35,-5.034 1.814,-6.577 -0.019,-6.589 -1.816,-6.601 -3.361,-5.022 -3.332,-3.203 -3.303,-1.412 -1.837,-0.002 0,0"
             style="fill:#0d81e0;fill-opacity:1;fill-rule:nonzero;stroke:none"
             id="path203" />
        </g>
        <g
           id="g205"
           transform="translate(107.561,222.2011)">
          <path
             d="M 0,0 C -1.785,-0.006 -3.279,1.44 -3.319,3.213 -3.358,4.991 -1.795,6.552 0.015,6.542 1.857,6.533 3.295,5.136 3.33,3.323 3.365,1.486 1.883,0.007 0,0"
             style="fill:#a115c1;fill-opacity:1;fill-rule:nonzero;stroke:none"
             id="path207" />
        </g>
        <g
           id="g209"
           transform="translate(124.5725,193.2562)">
          <path
             d="m 0,0 c 0.028,-1.868 -1.411,-3.375 -3.265,-3.418 -1.751,-0.041 -3.393,1.573 -3.388,3.331 0.005,1.667 1.617,3.295 3.299,3.334 C -1.662,3.286 -0.026,1.702 0,0"
             style="fill:#a115c1;fill-opacity:1;fill-rule:nonzero;stroke:none"
             id="path211" />
        </g>
        <g
           id="g213"
           transform="translate(121.2365,222.2012)">
          <path
             d="m 0,0 c -1.744,-0.002 -3.315,1.551 -3.311,3.274 0.004,1.713 1.589,3.274 3.32,3.268 C 1.91,6.536 3.368,5.073 3.337,3.203 3.306,1.391 1.86,0.002 0,0"
             style="fill:#a115c1;fill-opacity:1;fill-rule:nonzero;stroke:none"
             id="path215" />
        </g>
        <g
           id="g217"
           transform="translate(93.9241,222.1998)">
          <path
             d="m 0,0 c -1.834,-0.028 -3.42,1.497 -3.411,3.281 0.009,1.741 1.532,3.244 3.307,3.262 C 1.753,6.563 3.292,5.075 3.288,3.264 3.284,1.497 1.804,0.028 0,0"
             style="fill:#a115c1;fill-opacity:1;fill-rule:nonzero;stroke:none"
             id="path219" />
        </g>
        <g
           id="g221"
           transform="translate(80.1897,222.2002)">
          <path
             d="m 0,0 c -1.861,-0.006 -3.388,1.51 -3.349,3.322 0.04,1.8 1.509,3.221 3.328,3.221 C 1.858,6.542 3.332,5.077 3.323,3.22 3.314,1.471 1.802,0.005 0,0"
             style="fill:#a115c1;fill-opacity:1;fill-rule:nonzero;stroke:none"
             id="path223" />
        </g>
        <g
           id="g225"
           transform="translate(111.0486,126.2271)">
          <path
             d="m 0,0 c 0,-1.763 -1.494,-3.261 -3.276,-3.285 -1.699,-0.024 -3.315,1.548 -3.348,3.255 -0.03,1.612 1.684,3.404 3.256,3.403 C -1.616,3.372 0,1.754 0,0"
             style="fill:#1d63e1;fill-opacity:1;fill-rule:nonzero;stroke:none"
             id="path227" />
        </g>
        <g
           id="g229"
           transform="translate(94.0723,122.9429)">
          <path
             d="M 0,0 C -1.695,-0.01 -3.303,1.563 -3.333,3.263 -3.362,4.877 -1.656,6.656 -0.077,6.657 1.669,6.659 3.313,5.013 3.293,3.283 3.273,1.514 1.766,0.011 0,0"
             style="fill:#215ce1;fill-opacity:1;fill-rule:nonzero;stroke:none"
             id="path231" />
        </g>
        <g
           id="g233"
           transform="translate(121.4338,122.945)">
          <path
             d="M 0,0 C -1.71,0.011 -3.323,1.606 -3.328,3.292 -3.334,4.921 -1.666,6.611 -0.019,6.646 1.643,6.681 3.409,4.912 3.369,3.251 3.329,1.548 1.713,-0.011 0,0"
             style="fill:#2751e2;fill-opacity:1;fill-rule:nonzero;stroke:none"
             id="path235" />
        </g>
        <g
           id="g237"
           transform="translate(259.1752,147.595)">
          <path
             d="m 0,0 c -1.894,-5.873 -5.292,-10.678 -11.368,-12.674 -9.491,-3.116 -19.152,0.082 -23.43,10.711 -1.64,4.074 -2.37,8.433 -2.38,13.684 0.025,5.519 0.81,10.88 3.369,15.858 2.83,5.504 7.306,8.872 13.454,9.545 8.84,0.968 15.613,-2.694 19.43,-11.128 C 0.684,22.443 1.278,18.643 1.547,14.752 1.893,9.725 1.543,4.785 0,0 m 21.1,24.752 c -2.802,10.147 -8.433,18.196 -17.838,23.194 -11.571,6.149 -23.7,6.585 -36.042,2.723 -6.614,-2.07 -12.196,-5.843 -16.563,-11.269 -5.954,-7.398 -8.414,-16.055 -8.893,-25.379 -0.214,-4.159 0.127,-8.294 0.94,-12.379 1.998,-10.042 6.877,-18.295 15.339,-24.225 7.239,-5.074 15.398,-7.107 24.696,-6.971 3.075,-0.123 6.642,0.251 10.152,1.058 8.859,2.036 16.251,6.429 21.755,13.769 5.775,7.702 7.936,16.568 8.109,25.997 0.084,4.547 -0.437,9.071 -1.655,13.482"
             style="fill:#02b3e1;fill-opacity:1;fill-rule:nonzero;stroke:none"
             id="path239" />
        </g>
        <g
           id="g241"
           transform="translate(531.8774,143.5543)">
          <path
             d="m 0,0 c -5.698,-11.196 -19.51,-11.967 -26.862,-6.378 -3.706,2.817 -5.93,6.635 -7.116,11.042 -2.399,8.913 -2.306,17.76 1.549,26.275 2.691,5.945 7.395,9.53 13.966,10.266 C -9.369,42.223 -2.058,37.61 1.196,28.978 2.69,25.016 3.309,21.13 3.319,15.725 3.331,10.248 2.526,4.963 0,0 M 22.193,30.646 C 18.741,41.933 11.418,49.892 0.367,54.131 c -10.298,3.95 -20.82,4.031 -31.275,0.659 -9.068,-2.925 -16.003,-8.612 -20.528,-17.077 -3.65,-6.828 -5.15,-14.167 -5.058,-22.476 -0.113,-3.441 0.307,-7.434 1.285,-11.364 3.149,-12.651 10.591,-21.696 22.749,-26.571 8.256,-3.31 16.88,-3.626 25.529,-2.016 12.591,2.343 21.983,9.16 27.301,20.933 5.048,11.174 5.385,22.783 1.823,34.427"
             style="fill:#02b3e1;fill-opacity:1;fill-rule:nonzero;stroke:none"
             id="path243" />
        </g>
      </g>
    </g>
  </g>
</svg>
